<svg width="196" height="57" viewBox="0 0 196 57" fill="none" xmlns="http://www.w3.org/2000/svg">
<path fill-rule="evenodd" clip-rule="evenodd" d="M9.82953 16.3077C9.63421 16.4017 8.72043 16.5401 7.79889 16.6152C5.86438 16.7729 4.63568 17.1216 4.03971 17.6823C3.48232 18.2065 3.63304 18.8755 4.32503 18.9491C4.6229 18.9806 4.86765 19.0516 4.86917 19.1066C4.874 19.2807 4.21215 19.7842 3.97497 19.787C3.84978 19.7884 3.6168 19.9258 3.45708 20.0922C3.29736 20.2586 2.96414 20.3971 2.71664 20.3999C2.4689 20.4028 2.26978 20.5323 2.27409 20.6879C2.2784 20.8434 2.22039 21.1134 2.14509 21.2878C2.05538 21.4959 2.14065 21.6035 2.39366 21.6006C2.60566 21.5981 2.78172 21.6922 2.78497 21.8097C2.7962 22.2147 3.49378 22.5853 4.2286 22.5768C4.63367 22.5722 4.96759 22.6581 4.97063 22.7678C4.97395 22.8874 5.93545 22.9561 7.3744 22.9396C8.69343 22.9244 9.77485 22.9919 9.77757 23.0898C9.78027 23.1875 10.0539 23.3208 10.3855 23.3858C11.0269 23.5115 11.2303 23.8926 10.6596 23.8991C10.4727 23.9013 10.2686 24.0159 10.2058 24.1537C10.1146 24.3543 10.0866 24.3546 10.0659 24.1553C10.0355 23.8618 9.31805 23.8216 9.32615 24.114C9.32919 24.2237 9.06187 24.3165 8.73211 24.3203C8.40236 24.3241 8.13504 24.417 8.13808 24.5266C8.14112 24.6363 7.71192 24.731 7.18431 24.7371C6.6567 24.7432 6.22253 24.6584 6.21949 24.5488C6.21213 24.2833 5.07655 24.3044 4.9772 24.5717C4.93456 24.6866 4.60501 24.8103 4.24471 24.8464C3.88467 24.8827 3.51988 24.9727 3.43412 25.0467C3.34837 25.1207 3.0313 25.184 2.7296 25.1874C2.42766 25.1909 1.9173 25.4212 1.59514 25.6992C1.27298 25.9772 0.842474 26.2066 0.638623 26.209C0.169527 26.2144 0.17126 26.9435 0.641591 27.3203C0.834197 27.4748 1.21547 27.5987 1.48887 27.5956C1.76203 27.5924 1.98803 27.6796 1.99107 27.7893C1.99908 28.0782 2.89745 28.0242 3.01662 27.7276C3.08484 27.5576 3.27584 27.6196 3.60995 27.9202C4.1222 28.3811 4.64975 28.5027 4.64019 28.1577C4.63715 28.048 4.85051 27.9558 5.11431 27.9527C5.37812 27.9497 5.59586 28.0158 5.59818 28.0994C5.60497 28.3447 7.82302 28.6794 8.66976 28.5629C9.33797 28.471 9.4481 28.5148 9.45815 28.8776C9.46692 29.1941 9.32066 29.3007 8.87027 29.3059C8.43811 29.3108 8.27368 29.4201 8.28137 29.6975C8.29246 30.0977 8.89936 30.7019 9.28572 30.6975C9.40827 30.6961 9.51349 30.8744 9.51957 31.0937C9.52565 31.3131 9.4227 31.4938 9.2908 31.4954C9.15889 31.4969 9.05374 31.5978 9.05711 31.7197C9.06152 31.8788 10.0591 31.8885 12.5966 31.7537C17.3784 31.4997 38.9564 31.2439 39.9384 31.4294C40.469 31.5296 40.8408 31.4946 41.0829 31.3215C41.36 31.1232 41.6443 31.1135 42.3388 31.2791C42.8525 31.4012 46.0096 31.5065 49.7149 31.5248C53.2779 31.5424 57.7051 31.5802 59.5531 31.6088C61.4012 31.6373 66.4492 31.6757 70.7708 31.6939C75.2621 31.713 78.6307 31.8054 78.6336 31.9099C78.6364 32.0104 79.0164 32.0883 79.478 32.0829C79.9397 32.0776 80.3149 31.9835 80.3119 31.8738C80.3083 31.7462 82.4648 31.6495 86.302 31.6053C90.1391 31.5611 92.2995 31.608 92.3031 31.7357C92.3061 31.8453 92.7942 31.9295 93.3878 31.9226C93.9814 31.9158 94.4645 31.8205 94.4615 31.7108C94.4582 31.5925 95.3354 31.5012 96.6144 31.4865C97.8934 31.4717 98.7751 31.5428 98.7783 31.661C98.7819 31.7915 103.101 31.8107 111.255 31.7167C119.409 31.6228 123.724 31.504 123.72 31.3736C123.717 31.2639 124.092 31.1698 124.554 31.1645C125.016 31.1592 125.396 31.2446 125.399 31.3543C125.402 31.4667 126.084 31.5459 126.963 31.5357C127.843 31.5256 128.52 31.4308 128.516 31.3183C128.513 31.2087 128.673 31.117 128.871 31.1148C129.069 31.1125 129.233 31.2004 129.236 31.31C129.239 31.4225 129.921 31.5016 130.8 31.4915C131.68 31.4814 132.357 31.3866 132.354 31.2741C132.351 31.1644 132.726 31.0703 133.188 31.065C133.649 31.0597 134.029 31.1451 134.032 31.2548C134.041 31.5746 161.78 31.2053 161.951 30.8832C162.057 30.6825 162.113 30.6818 162.23 30.88C162.405 31.175 164.498 31.1971 164.49 30.9038C164.487 30.7941 164.7 30.7019 164.964 30.6988C165.228 30.6958 165.446 30.783 165.449 30.8927C165.453 31.009 166.254 31.0829 167.374 31.07C168.493 31.0571 169.29 30.9648 169.287 30.8485C169.283 30.7227 170.956 30.6298 173.826 30.5967C176.774 30.5627 178.585 30.4603 178.978 30.3051C179.453 30.1179 179.717 30.1223 180.19 30.3249C180.694 30.5407 180.893 30.5384 181.385 30.3111C181.841 30.1 182.112 30.0881 182.582 30.2588C182.997 30.4098 183.382 30.4158 183.799 30.2777C184.135 30.1667 184.969 30.0639 185.653 30.0495C186.807 30.0252 187.991 29.8653 189.761 29.495C190.154 29.4127 190.646 29.1778 190.854 28.9732C191.102 28.7283 191.558 28.597 192.185 28.5898C192.857 28.582 193.341 28.4288 193.822 28.0724C194.198 27.794 194.694 27.5638 194.925 27.561C195.156 27.5583 195.342 27.4662 195.339 27.3565C195.336 27.2468 195.114 27.1596 194.846 27.1627C194.27 27.1694 193.941 26.6433 194.319 26.3176C194.687 26 194.643 25.7687 194.216 25.7736C194.018 25.7759 193.853 25.688 193.85 25.5783C193.847 25.4686 193.601 25.3817 193.302 25.3851C192.969 25.389 192.663 25.2189 192.51 24.9454C192.327 24.6176 192.022 24.4858 191.36 24.448C190.864 24.4196 190.457 24.312 190.454 24.2091C190.451 24.106 190.287 24.0235 190.089 24.0258C189.891 24.028 189.727 23.9402 189.724 23.8305C189.721 23.7208 189.394 23.6348 188.999 23.6394C188.219 23.6483 188.073 23.3879 188.602 22.9312C188.856 22.7122 189.092 22.6887 189.575 22.8344C190.417 23.0888 190.423 23.0873 190.41 22.6257C190.4 22.2859 190.559 22.225 191.478 22.2144L192.557 22.2019L192.532 21.3046C192.511 20.5477 192.434 20.408 192.04 20.4125C191.783 20.4155 191.482 20.2975 191.373 20.1501C191.071 19.7443 190.199 19.4363 189.378 19.4458C188.974 19.4504 188.64 19.3645 188.637 19.2548C188.634 19.1452 188.416 19.0579 188.152 19.0609C187.888 19.064 187.67 18.9767 187.667 18.8671C187.664 18.7574 187.434 18.6703 187.156 18.6735C186.879 18.6767 186.447 18.4714 186.196 18.2173C185.77 17.7846 185.563 17.7548 182.91 17.7459C181.353 17.7407 180.04 17.6519 179.994 17.5485C179.947 17.4451 179.27 17.3679 178.489 17.3769C177.709 17.3859 177.068 17.3139 177.065 17.2168C177.063 17.1199 175.251 17.0055 173.04 16.963C170.829 16.9202 168.06 16.8422 166.888 16.7897C165.233 16.7156 164.711 16.7553 164.554 16.9674C164.399 17.1768 164.306 17.1849 164.156 17.0013C164.021 16.8355 162.597 16.7408 159.53 16.6933C157.092 16.6556 153.909 16.5544 152.455 16.4687C151.001 16.3827 145.036 16.367 139.199 16.4339C132.285 16.5132 128.585 16.4862 128.582 16.3562C128.579 16.2465 128.037 16.163 127.377 16.1706C126.718 16.1782 126.18 16.2741 126.183 16.3838C126.186 16.4935 125.919 16.5863 125.589 16.5901C125.26 16.5939 124.987 16.5073 124.984 16.3976C124.981 16.2879 124.439 16.2044 123.78 16.212C123.12 16.2196 122.583 16.3156 122.586 16.4253C122.589 16.5349 122.376 16.6272 122.112 16.6302C121.848 16.6333 121.63 16.546 121.627 16.4363C121.623 16.3051 115.426 16.3083 103.515 16.4456C91.9265 16.5791 85.4059 16.5842 85.4024 16.46C85.3991 16.3393 82.3735 16.2719 77.4208 16.2819C73.0338 16.2907 66.0962 16.236 62.0038 16.1605C57.9114 16.085 49.2196 16.0347 42.6887 16.0489C36.1578 16.0631 29.3184 16.0408 27.4899 15.9991C25.2188 15.9474 24.0834 15.994 23.9074 16.1459C23.5853 16.4239 22.788 16.4472 22.7806 16.179C22.7738 15.9331 10.3513 16.0565 9.82953 16.3077Z" fill="#FFDCBA"/>
<path d="M36.36 34.08C35.76 35.31 35.58 34.65 35.1 35.13C34.62 35.64 33.9 35.64 33.3 35.64C32.82 35.64 31.2 35.52 31.2 34.35C31.2 33.09 32.4 31.29 33.3 30.24C35.19 28.05 36.54 27.09 38.85 26.07C39.21 25.38 39.51 24.27 39.51 23.79C39.51 23.55 39.45 23.28 39.45 23.01C39.45 22.65 39.63 22.26 39.63 21.9C39.63 21.24 39.33 20.82 39.15 20.4C38.85 20.73 38.34 21.36 38.16 21.36C38.07 21.36 37.95 21.21 37.86 21.21C37.74 21.21 36.96 21.81 36.81 22.26C36.69 22.5 36.27 22.5 36.03 22.8C35.76 23.16 34.68 24.51 34.08 24.51C33.84 24.51 33.09 25.17 32.37 25.17C32.28 25.17 32.19 25.14 32.1 25.11C32.01 25.2 31.95 25.23 31.86 25.23C31.71 25.23 31.59 24.93 31.41 24.93C31.17 24.93 30.93 25.05 30.66 25.05C30.39 25.05 29.7 24.84 29.43 24.45C29.43 24.48 27.6 23.7 27.6 22.29C27.6 22.08 27.78 21.9 27.78 21.66C27.78 21.57 27.75 21.51 27.75 21.42C27.75 21.03 27.93 20.67 28.05 20.31C28.38 19.23 28.23 18.21 29.22 17.22C29.22 16.98 29.1 16.83 29.1 16.65C29.1 16.2 29.64 15.84 30.03 15.51C30.12 15.21 29.94 14.85 30.33 14.7C30.48 14.67 30.57 14.52 30.57 14.34C30.66 13.86 30.99 14.04 31.2 13.56C31.35 13.23 32.79 12.6 32.94 12.12C33.03 11.76 33.66 11.7 33.99 11.55C34.35 11.4 34.26 10.92 34.8 10.92C35.49 10.92 35.49 10.56 35.79 10.56C35.94 10.56 36.12 10.77 36.3 10.77C37.08 10.8 37.71 11.25 38.37 11.58C39.15 12 40.68 12.33 40.68 13.44C40.68 13.77 40.17 13.92 39.9 13.92C39.3 13.92 38.34 12.93 37.41 12.93C36.33 12.93 35.01 13.98 34.08 14.97C33.3 15.78 31.95 17.49 31.83 18.69C31.68 19.17 31.35 19.17 31.35 19.92C31.35 20.52 30.84 21.36 30.84 21.96C30.84 22.23 31.08 22.71 31.35 22.71C33.48 22.23 36.09 20.07 38.52 18.57C39 18.27 39.81 17.16 40.29 17.16C40.35 17.16 40.44 17.19 40.53 17.19C40.8 17.19 41.13 17.01 41.4 17.01C42.48 17.01 43.2 17.76 43.2 19.59C43.17 19.59 42.36 23.94 42.09 24.24C41.88 24.51 41.91 24.96 41.82 25.32C41.97 25.41 42.12 25.44 42.27 25.44C42.6 25.44 42.9 25.41 43.35 25.41C43.83 25.41 44.31 25.47 44.31 25.89C44.31 26.07 43.86 26.43 43.65 26.64C42.75 26.73 41.91 26.61 41.13 27C40.53 28.26 39.15 30.75 39.21 30.72C38.37 31.35 38.46 32.64 37.29 33.24C36.84 33.48 37.17 34.11 36.6 34.11C36.54 34.11 36.45 34.08 36.36 34.08ZM35.73 33.66C35.73 33.63 35.7 33.63 35.7 33.6C35.7 33.57 35.73 33.57 35.73 33.57C35.76 33.57 35.76 33.57 35.79 33.6C35.76 33.63 35.73 33.63 35.7 33.63C36 33.18 36.27 33 36.69 32.7C36.96 31.74 37.44 30.96 38.16 30.36C38.16 30.15 38.13 29.97 38.13 29.79C38.13 29.4 38.22 29.04 38.52 28.77C38.55 28.83 38.55 28.86 38.58 28.86C38.58 28.83 38.55 28.8 38.49 28.8C38.58 28.56 38.64 28.32 38.7 28.05C38.7 27.9 38.58 27.75 38.4 27.75C38.07 27.75 37.5 28.2 37.14 28.53C36.12 29.43 33.33 31.65 33.18 34.08C33.27 34.2 33.54 34.2 33.69 34.2C34.38 34.2 34.98 33.66 35.73 33.66ZM39.12 27.93C39.12 27.9 39.09 27.87 39.09 27.84C39.06 27.87 39.03 27.9 39.03 27.93C39.03 27.93 39.06 27.96 39.06 27.99C39.09 27.99 39.09 27.96 39.12 27.93ZM49.3404 25.2C49.5504 25.41 49.5804 25.68 49.5804 26.13C49.5804 26.88 49.1604 26.94 49.1604 27.45C49.1604 27.57 49.1904 27.81 49.2804 27.81C49.3104 27.81 49.3704 27.72 49.4604 27.72C49.5504 27.72 49.5804 28.44 49.5804 28.92C49.5804 29.94 49.1004 30.12 49.1004 30.99C49.1004 31.35 49.0704 31.59 49.0704 31.98C49.0704 32.55 49.1904 33.12 49.9104 33.12C49.9404 33.12 49.9704 33.12 50.0004 33.09C50.0304 33.54 50.0004 34.17 50.1804 34.2C50.6304 34.2 51.6204 29.94 52.3704 28.5C52.4604 28.53 52.5204 28.53 52.5804 28.53C52.8804 28.53 52.6704 27.84 52.8804 27.84C53.0304 27.84 52.9704 28.98 53.1804 28.98C53.3904 28.77 53.3904 27.96 53.3904 27.42C53.3904 27.18 53.3304 26.91 53.3304 26.67C53.3304 25.89 53.5704 24.78 54.2904 24.39C54.5304 24.27 54.5904 23.43 54.6804 23.04C54.7704 22.53 55.1604 22.14 55.3104 21.63C55.3704 21.36 56.3904 20.52 56.8704 20.52C57.0504 20.52 57.3504 20.61 57.3504 20.76C57.3504 21.45 56.6304 22.17 56.1504 22.65C55.4604 23.16 54.9804 25.14 54.6804 25.14C54.5604 25.14 54.5304 24.93 54.3804 24.93C54.1104 24.93 54.1704 27.66 54.0804 28.77C53.9604 28.86 53.8404 28.92 53.6904 29.01C53.6004 30.12 53.7504 31.26 53.5104 32.37C53.3904 32.37 53.2404 32.34 53.0904 32.34C53.0604 32.4 53.0304 32.46 53.0304 32.52C53.0304 32.67 53.1204 32.82 53.1204 33C53.1204 33.15 53.0904 33.3 53.0904 33.45C53.0904 33.54 53.1204 33.66 53.1204 33.78C53.0904 34.83 52.6104 35.61 52.3404 36.54C52.1004 37.32 51.3804 37.32 51.2304 37.74C51.1404 38.01 50.5704 38.49 50.5404 38.49C50.3904 38.49 50.2704 38.28 50.0904 38.28C49.8804 38.28 49.6404 38.43 49.4304 38.43C48.1104 38.28 48.1104 35.82 47.4504 35.19C47.3604 35.1 47.3304 34.89 47.3304 34.62C47.3304 33.21 46.8504 33.6 46.8504 31.83C46.8504 31.32 46.8804 30.75 46.8804 30.36C46.8804 29.85 46.7004 29.43 46.7004 28.95C46.7004 28.26 46.8804 27.57 46.8804 26.88C46.8804 26.58 46.8804 26.31 46.8504 26.01C46.8504 25.44 47.3604 25.83 47.3604 25.47C47.3604 25.29 47.3304 25.11 47.3304 24.93C47.3604 24.33 47.3904 23.73 47.3904 23.13C47.3904 22.41 47.0604 21.81 47.0604 21.15C47.0604 20.07 47.3004 19.17 47.4804 18.15C47.5104 18.09 47.5404 18 47.5404 17.88C47.5404 17.61 47.4504 17.34 47.4504 17.04C47.4504 16.77 47.6304 16.53 47.6304 16.26C47.6304 16.05 47.5704 15.84 47.5704 15.6C47.5704 14.94 47.7804 14.07 47.7804 13.47C47.7804 13.23 47.7504 12.99 47.7504 12.78C47.7504 12.3 47.7804 11.85 47.7804 11.4C47.7804 10.98 47.6004 10.68 47.6004 10.35C47.6004 9.69 48.4404 9.66 48.9804 9.66C49.9704 9.66 50.0604 9.87 50.0604 10.68C50.0604 12.24 49.7004 14.37 49.7004 15.66C49.7004 15.81 49.8204 15.96 49.8204 16.14C49.8204 16.17 49.7904 16.2 49.7904 16.2C49.5804 16.59 49.6704 17.01 49.6104 17.43C49.6104 17.61 49.7304 17.73 49.7304 17.91C49.7304 18.03 49.6404 18.15 49.6404 18.24C49.6404 18.39 49.7304 18.51 49.7304 18.66C49.7304 18.9 49.6104 19.26 49.6104 19.5C49.6104 19.74 49.7304 19.98 49.7304 20.22C49.7304 20.76 49.4904 21.3 49.4904 21.75C49.4904 21.93 49.6104 22.11 49.6104 22.29C49.6104 22.53 49.3404 22.77 49.3404 23.01C49.3404 23.25 49.6104 23.4 49.6104 23.7C49.5204 24.45 49.4304 24.69 49.3404 25.26C49.3404 25.26 49.3404 25.23 49.3404 25.2ZM47.2104 28.59C47.3904 28.5 47.7204 28.47 47.7204 28.2C47.7204 28.02 47.4804 27.87 47.3304 27.87C47.1804 27.87 47.1204 28.02 47.1204 28.26C47.1204 28.35 47.1504 28.47 47.2104 28.59ZM52.0104 30.42L51.9204 30.39C51.8904 30.69 51.8904 30.99 51.8904 31.29C51.8904 31.29 51.9204 31.32 51.9504 31.35C52.0104 31.35 52.0104 31.14 52.0104 30.87C52.0104 30.72 52.0104 30.54 52.0104 30.42ZM53.7804 27.57C53.7504 27.84 53.7204 27.93 53.7204 28.02C53.7204 28.08 53.7504 28.14 53.7804 28.17C53.7804 28.14 53.8104 28.11 53.8104 28.08C53.8104 27.96 53.7804 27.87 53.7804 27.57ZM49.7304 34.32C49.6104 34.32 49.6104 34.47 49.6104 34.56C49.6104 34.65 49.6404 34.71 49.7004 34.77C49.7304 34.65 49.7904 34.59 49.8204 34.47C49.8204 34.44 49.7604 34.35 49.7304 34.32ZM53.2104 30.03C53.2704 29.97 53.3304 29.94 53.3304 29.88C53.3304 29.82 53.3004 29.79 53.2404 29.79C53.1504 29.79 53.1204 29.85 53.0904 29.94C53.0904 30 53.1504 30.03 53.2104 30.03ZM48.8604 29.97C48.8604 29.88 48.8604 29.88 48.8004 29.82C48.7704 29.88 48.7404 29.94 48.7404 30C48.7404 30.03 48.7404 30.06 48.7704 30.09C48.8004 30.06 48.8304 30 48.8604 29.97ZM54.9504 23.61C54.9504 23.58 54.9204 23.49 54.8904 23.49C54.8604 23.49 54.8304 23.52 54.8304 23.55C54.8304 23.58 54.8604 23.61 54.8604 23.64C54.8904 23.64 54.9204 23.64 54.9504 23.61ZM48.7704 26.94L48.8004 27.03L48.8304 26.97L48.7704 26.94ZM54.948 26.01C54.948 25.26 55.818 18.72 56.748 18.72C57.168 18.72 57.738 18.93 58.188 19.05C58.998 19.29 59.538 21.51 59.538 22.59C59.538 23.34 59.448 24.06 59.388 24.78C59.178 25.32 59.358 25.89 59.148 26.43C59.118 26.46 59.118 26.52 59.118 26.58C59.118 27.15 59.148 30.45 59.928 30.45C59.988 30.45 60.048 30.45 60.108 30.39C61.398 28.86 62.508 27.54 62.928 25.59C63.048 24.99 63.468 24.63 63.948 24.63C64.338 24.63 64.668 24.81 64.668 25.17C64.668 25.62 63.798 26.34 63.648 26.97C63.558 27.18 63.258 28.08 62.928 28.35C62.658 28.53 62.748 28.89 62.598 29.16C62.358 29.67 61.848 30.09 61.788 30.48C61.788 30.81 61.188 31.23 61.038 31.68C60.708 32.28 59.538 32.7 58.848 32.7C57.858 32.7 56.568 31.59 56.118 30.57C55.848 29.97 55.068 28.89 55.068 28.02C55.068 27.33 54.948 26.67 54.948 26.01ZM57.198 14.43C57.198 14.13 57.258 13.53 57.768 13.53C58.458 13.68 59.268 13.65 59.268 14.4C59.268 15.09 58.908 15.9 58.128 15.9C57.408 15.9 57.198 14.97 57.198 14.43ZM78.3982 26.1C78.4582 26.22 78.6682 26.31 78.8182 26.31C78.6082 26.7 78.3982 27.09 78.3382 27.39C78.0382 27.45 77.6782 27.45 77.4682 27.96C77.4982 27.96 77.5282 27.96 77.5882 27.96C78.2482 27.96 78.1582 27.36 78.8182 27.09C78.9082 27.21 78.9382 27.3 78.9382 27.42C78.9382 27.75 78.5782 28.02 78.5782 28.32C78.5782 28.47 78.6982 28.65 78.6982 28.77C78.6982 29.1 78.2782 29.31 78.2782 29.7C78.2782 29.76 78.2782 29.85 78.3382 29.94C78.4582 29.73 78.6682 29.61 78.9082 29.46C78.9682 29.58 78.9682 29.7 78.9682 29.79C78.9682 30.3 78.0982 30.03 78.0982 30.69C78.0982 30.78 78.1282 30.87 78.1582 30.96C78.0682 30.96 78.0082 30.93 77.9482 30.93C77.6182 30.93 77.4382 31.14 77.2882 31.44C77.3782 31.47 77.4382 31.5 77.4982 31.5C78.0382 31.5 77.8882 30.87 78.6682 30.87C78.8482 31.17 78.9082 31.89 79.0582 32.1C79.3582 32.4 79.5082 32.55 79.5082 32.73C79.5082 32.88 79.3582 33.03 79.0582 33.3C79.4782 33.96 80.0182 34.35 80.0182 35.49C80.1682 36.3 80.1682 36.3 80.8582 36.81C80.9782 36.3 80.9782 35.79 80.9782 35.22C81.1282 35.13 81.6682 34.86 81.6682 34.77C81.6682 34.53 81.3982 34.29 80.9782 34.17C80.9782 33.96 81.0682 33.81 81.0682 33.54C81.3382 33.63 81.5182 33.72 81.9082 33.81C81.8482 33.42 81.6682 33.12 81.6682 32.94C81.6682 32.61 81.3382 32.76 81.0682 32.67C81.0682 32.46 81.1882 32.31 81.1882 32.01C81.3382 32.1 81.5182 32.1 81.7282 32.1C81.6982 31.47 81.5482 30.9 81.5482 30.36C81.5482 30.06 81.5782 29.76 81.7282 29.46C82.6282 30.15 82.0282 32.1 82.7782 33.42C82.5082 33.81 82.2082 34.11 82.2082 34.35C82.2082 34.65 82.3582 34.95 82.5982 35.31C82.7782 35.22 82.8682 35.1 82.9282 35.04C83.5882 35.58 83.9182 36.06 83.9182 36.57C83.9182 36.96 83.7382 37.35 83.4382 37.8C83.5882 38.19 83.6482 38.52 83.6482 38.79C83.6482 39.57 83.0482 39.93 81.4282 40.32C81.5182 40.14 81.6682 40.05 81.8482 39.78C81.1882 39.93 80.9482 40.11 80.6182 40.11C80.1382 40.11 79.0582 39.18 78.9082 38.46C79.2682 38.25 79.3282 37.86 79.3282 37.5C79.0582 37.68 78.9082 37.95 78.6082 38.13C78.6682 38.25 78.9082 38.34 78.9982 38.46C78.3382 38.34 78.1582 38.13 78.0382 37.68C77.7982 36.78 76.9582 35.58 76.9582 35.04C76.9582 34.86 76.9582 34.71 76.9582 34.59C76.9582 34.29 76.8682 34.26 76.2382 34.17C76.2982 33.87 76.2982 33.63 76.4182 33.42C76.9582 33.24 77.3482 33.03 77.8282 32.85C78.4582 32.76 78.4582 32.76 78.4582 31.92C78.2182 32.31 78.0382 32.61 77.8282 32.85C77.5882 32.79 77.3782 32.73 77.1682 32.73C76.8682 32.73 76.5982 32.82 76.2982 33.03C76.1182 33.03 75.9982 32.94 75.9982 32.79C75.9982 32.55 76.1182 32.22 76.1182 31.98C76.1182 31.65 76.0582 31.35 75.8482 31.08C75.6382 30.66 75.6382 30.15 75.6382 29.73C75.6382 29.64 75.6682 29.55 75.6682 29.43C75.6682 29.1 75.5782 28.74 75.5782 28.38C75.5782 28.05 75.8182 27.66 75.8182 27.48C75.8182 27.45 75.7882 27.39 75.7582 27.39C75.4282 26.88 75.3982 25.53 75.3982 25.14C75.3982 24.78 75.5182 24.45 75.5782 24.03C75.5782 23.97 75.3682 23.58 75.3682 23.58C75.3382 23.58 75.2782 23.61 75.2482 23.61C74.9782 23.61 74.8882 23.28 74.6782 23.1C74.6782 23.19 74.6182 23.28 74.6182 23.28C74.7382 23.52 74.7682 23.79 74.7682 24C74.7682 24.75 74.2582 25.47 74.2582 26.16C74.2582 26.37 74.4082 26.58 74.4082 26.85C74.4082 26.97 74.3782 27.09 74.3482 27.18C73.9882 27.81 74.1382 28.68 74.0482 29.46C73.9582 30 73.8682 30.78 73.8682 31.35C73.8682 31.44 73.8682 31.5 73.8682 31.59C73.8682 32.25 73.4182 32.73 73.3282 33.24C72.9982 33.45 72.6682 33.51 72.3982 33.51C71.9782 33.51 71.5882 33.36 71.2282 33.3C69.8482 33.3 68.1382 28.86 68.0782 28.29C67.9282 26.79 67.9882 25.38 67.9582 23.85C68.0782 22.32 68.2882 20.82 68.3782 19.29C68.3782 18.96 68.5582 18.63 68.5582 18.21C68.5582 17.88 68.3782 17.7 67.9282 17.7C67.8682 17.7 67.8382 17.7 67.8082 17.7C67.4182 17.7 67.3882 17.31 67.2382 17.13C67.3282 17.13 67.4482 17.16 67.5382 17.16C67.7182 17.16 67.8682 17.1 67.9282 16.83C67.7182 16.98 67.5082 17.04 67.2382 17.13C66.8182 17.67 66.3682 17.61 65.8882 17.61C64.3882 17.61 63.2482 16.74 61.9282 15.24C61.7482 15 61.6582 14.79 61.6582 14.52C61.6582 14.34 61.7182 14.16 61.8082 13.92C62.3482 13.92 62.7982 14.13 63.1582 14.43C63.8482 15 64.6282 15.27 65.5282 15.27C66.5782 15.27 67.6882 15.24 68.8582 15.24C69.0982 13.32 69.3682 11.07 70.1482 11.07C71.1082 11.07 71.6182 11.52 71.6182 12.48C71.4982 13.14 71.4982 13.92 71.4082 14.64C72.7282 14.55 73.9582 14.34 75.1282 14.13C75.8482 14.13 75.9382 13.92 76.0582 13.14C76.1782 11.55 76.2382 9.87 76.2982 8.25C76.2982 8.13 76.4182 8.13 76.5082 7.98C77.6782 8.16 78.9982 8.1 78.9982 9.21C78.9982 9.57 78.9682 9.9 78.9682 10.2C78.9682 10.53 79.1482 10.98 79.1482 11.37C79.1482 12 78.9982 12.78 78.8182 13.35C78.9682 13.59 79.2082 13.65 79.4482 13.65C79.8082 13.65 80.0782 13.59 80.4382 13.59C80.9482 13.59 81.4282 13.65 81.8482 13.65C82.0882 13.65 82.2982 13.65 82.5382 13.65C82.8382 13.65 83.1382 13.68 83.4382 13.83C83.5882 13.68 83.7682 13.65 83.9182 13.65C84.3082 13.65 84.7282 13.92 85.1182 13.92C85.1782 13.92 85.2682 13.92 85.3282 13.92C86.1982 13.92 86.9482 14.43 87.8482 14.43V15.12C87.9082 15.15 87.9682 15.15 87.9982 15.15C88.3282 15.15 88.2682 14.82 88.3582 14.58C88.6882 14.64 88.7482 15.09 89.0182 15.09C89.0782 15.09 89.1682 15.06 89.2282 15.06C89.3782 15.06 89.4682 15.33 89.4682 15.63C89.4682 15.99 89.2582 16.29 89.0182 16.44C87.9982 16.32 87.1282 16.14 86.1682 15.72C86.3182 15.6 86.3782 15.48 86.3782 15.36C86.3782 15.21 86.0182 15 85.8382 15C85.6582 15 85.2082 15.51 84.6082 15.78C84.5482 15.51 84.4882 15.33 84.3082 15.06C83.7382 15.93 82.5382 15.78 81.6682 15.78C81.7282 15.57 81.8482 15.45 82.0882 15.12C81.6682 15.12 81.3382 15.24 80.9782 15.24C81.0682 15.51 81.0682 15.57 81.0682 15.78C80.7082 15.78 80.6782 15.48 80.3782 15.48C79.7482 15.48 78.5782 16.74 78.5782 17.61C78.5782 17.73 78.6082 17.88 78.6082 18.03C78.6082 18.39 78.4582 18.84 78.4582 19.29C78.6082 19.11 78.6082 18.93 78.6682 18.63C78.9382 18.84 79.1782 18.99 79.1782 19.2C79.1782 19.35 78.9982 19.89 78.9982 20.13C78.9982 20.31 78.9982 20.46 78.9982 20.64C78.9982 21.03 78.9382 21.36 78.3982 21.6C78.4582 21.87 78.6682 22.08 78.8182 22.23C78.6682 22.47 78.6082 22.77 78.4582 22.89C78.6982 23.22 78.8482 23.4 78.8482 23.52C78.8482 23.67 78.1582 24.12 77.9482 24.63C78.3382 24.69 78.6082 24.78 78.9082 24.93C78.6682 25.38 78.6082 25.77 78.3982 26.1C78.3682 26.1 78.3382 26.1 78.3082 26.1C78.0982 26.1 77.9182 26.25 77.7382 26.46L77.8282 26.61C78.0382 26.46 78.2182 26.22 78.3982 26.1ZM71.7982 31.11C71.9782 30.21 72.2482 29.34 72.4582 28.62C72.6082 27.39 72.7282 26.43 73.1182 24.96C73.2982 24.27 73.4482 23.49 73.6582 22.77C73.8982 21.93 74.2282 21.21 74.5282 20.34C74.5282 19.2 74.9782 17.88 75.5782 16.98C75.6082 16.92 75.6082 16.89 75.6082 16.86C75.6082 16.56 75.2482 16.35 75.0982 16.35C75.0082 16.35 74.3182 16.65 73.7482 17.04C73.6582 16.74 73.5682 16.68 73.5682 16.38C72.7582 16.74 72.2782 17.61 71.5282 17.61C71.4682 17.61 71.4382 17.61 71.4082 17.61C71.2582 18.63 71.1382 19.59 71.1382 20.13C71.1382 20.7 71.1682 21.24 71.1682 21.78C71.1682 22.65 70.8082 23.4 70.8082 24.24C70.8082 24.87 71.0782 25.35 71.0782 25.92C71.0782 26.49 70.7782 26.97 70.7782 27.57C70.7782 27.78 70.8682 28.08 70.8682 28.29C70.8682 28.5 70.7782 28.71 70.4782 28.83C71.4982 29.01 71.2282 29.25 71.2282 30.87C71.4082 30.96 71.4982 31.08 71.7982 31.11ZM76.8082 29.07C77.1082 29.34 77.2882 29.46 77.4682 29.73C77.7382 29.28 77.8282 28.89 78.0382 28.47C77.9782 28.47 77.9482 28.47 77.9182 28.47C77.4382 28.47 77.3182 28.95 76.8082 29.07ZM78.8182 34.44C78.4582 34.29 78.6082 33.81 78.1582 33.81C78.0682 33.81 77.9182 33.99 77.9182 34.11C77.9182 34.44 78.0682 34.59 78.2482 34.59C78.3982 34.59 78.5782 34.53 78.8182 34.44ZM87.3082 15.12C87.2482 14.97 87.1882 14.76 86.9782 14.76C86.8282 14.76 86.6482 14.91 86.6482 15.06C86.7382 15.21 86.8282 15.27 86.9482 15.27C87.0382 15.27 87.1582 15.21 87.3082 15.12ZM83.1682 37.59C83.3182 37.47 83.3782 37.38 83.3782 37.29C83.3782 37.17 83.2582 37.05 83.1682 36.93C83.0182 36.93 83.0182 37.02 82.9282 37.02C82.9282 37.2 83.0182 37.41 83.1682 37.59ZM77.6782 21.39L77.7382 21.48C77.9482 21.27 78.0382 21.21 78.2182 21.03C78.1582 21.03 78.1582 20.97 78.0382 20.97C77.9482 21.03 77.8282 21.21 77.6782 21.39ZM74.9182 14.79L75.2782 15.12C75.2782 15.06 75.3682 14.94 75.3682 14.94C75.2782 14.85 75.1282 14.79 74.9782 14.64C74.9182 14.64 74.9182 14.79 74.9182 14.79ZM78.9082 35.7L78.8182 35.22C78.6682 35.22 78.6082 35.22 78.6082 35.22C78.6082 35.58 78.5182 35.7 78.9082 35.7ZM82.2982 29.34C82.2082 29.16 81.9082 29.07 81.8482 28.89C81.7882 28.62 81.7582 28.38 81.7582 28.14C81.7582 27.75 82.0882 27.33 82.0882 26.94C82.0882 26.67 81.9982 26.37 81.9982 26.1C82.2082 26.1 82.2982 26.1 82.5082 26.22C82.5082 25.62 82.3282 25.59 82.3282 25.29C82.3282 25.05 82.4182 24.84 82.5082 24.69C82.7782 23.67 83.0182 22.62 83.6182 21.66C83.7082 21.48 83.7082 21.39 83.7082 21.21C83.8582 20.04 84.5482 19.44 85.6282 19.44C85.9882 19.44 86.6482 19.23 86.6482 20.46C85.2682 21.24 85.0882 21.96 84.3082 22.47C84.3682 22.77 84.6382 22.98 84.6382 23.22C84.6382 23.34 84.5782 23.46 84.3982 23.58C84.3082 23.4 84.0982 23.19 83.8882 22.98C83.8882 23.34 83.5282 23.58 83.5282 23.94C83.5282 24.09 83.7382 24.27 83.7382 24.42C83.7382 25.08 82.9582 24.96 82.9582 25.5C82.9582 25.65 82.9882 25.8 83.0182 25.95C83.0182 25.95 82.9282 26.1 82.9282 26.22C83.1682 26.31 83.3182 26.46 83.5282 26.52C83.5282 26.79 82.8082 26.88 82.5082 26.97C82.5682 27.18 82.5982 27.39 82.5982 27.57C82.5982 28.2 82.3282 28.8 82.2982 29.34ZM83.2582 33.72C83.4082 33.87 83.4382 33.96 83.4382 34.08C83.4382 34.29 83.1682 34.41 83.0182 34.56C83.0182 34.29 83.1682 34.11 83.2582 33.72ZM82.2982 29.34C82.8082 29.34 83.1682 29.55 83.1682 29.94L83.0182 30C82.7782 29.82 82.5982 29.55 82.2982 29.34ZM83.0182 29.55C83.1682 29.25 83.1982 29.16 83.3182 29.16C83.3782 29.16 83.4682 29.19 83.6182 29.28C83.3182 29.34 83.2582 29.46 83.0182 29.55ZM85.4651 22.41C85.7651 22.05 86.0651 21.66 86.2151 21.18C86.4851 20.34 87.5051 20.07 87.7151 19.41C88.1651 18.96 88.5551 18.36 89.2151 18.09C89.6051 17.94 89.8151 17.49 90.2951 17.49C91.8551 17.49 94.4051 18.63 94.4051 20.25C94.4051 20.34 94.3751 20.46 94.3751 20.55C94.3751 20.76 94.4051 20.94 94.4051 21.12C94.4051 21.48 94.2851 21.78 93.9851 21.99C93.6851 22.14 93.5651 22.62 93.3251 22.89C93.1151 23.1 92.9051 23.28 92.7551 23.58C92.4251 24.21 90.7151 25.77 89.0351 25.77C88.6151 25.77 88.1951 25.65 87.7751 25.65C87.2051 25.65 87.1751 26.49 87.1751 26.97C87.1751 28.32 87.2651 30.84 88.3451 30.84C88.7951 30.84 89.3351 30.48 89.6651 30.21C91.2851 28.89 92.8751 27.63 94.4351 26.25C94.7651 25.95 96.0251 24.51 96.9551 24.51C97.1351 24.51 97.4351 24.6 97.4351 24.84C97.4351 25.23 96.5351 25.59 96.2351 25.8C96.2351 25.8 94.6151 27.15 94.6151 27.45C94.6151 27.69 94.4651 28.17 94.1351 28.17C93.2951 28.59 92.8451 29.94 92.3351 30.12C91.8551 30.3 89.8751 32.73 89.3651 32.73C89.2751 32.73 89.1551 32.7 89.0651 32.64C88.8551 32.76 88.6751 32.88 88.4951 33C87.3251 32.88 86.5151 32.91 85.8851 31.98C85.8251 31.83 85.7351 31.68 85.6151 31.62C85.1051 31.35 84.7451 30.3 84.7451 30.21C84.7451 30.09 84.8051 29.94 84.8051 29.79C84.8051 29.52 84.4751 29.28 84.4751 29.04C84.4751 28.95 84.5651 28.83 84.5651 28.71C84.5651 28.53 84.4451 28.35 84.4451 28.14C84.4451 27.99 84.5951 27.81 84.5951 27.66C84.5951 27.45 84.3851 27.21 84.3851 26.97C84.3851 26.37 84.3551 24.99 84.7451 24.51C85.1651 24 85.0451 23.04 85.4951 22.41C85.4351 22.5 85.3751 22.62 85.3751 22.74C85.3751 22.8 85.4051 22.86 85.4351 22.89C85.4651 22.86 85.5251 22.89 85.5251 22.77C85.5251 22.65 85.4951 22.53 85.4651 22.41ZM88.3151 23.91C89.3951 23.73 91.9751 22.92 91.9751 21C91.9751 20.49 91.8551 19.65 91.2551 19.65C89.2751 19.65 87.6851 22.83 87.6851 23.64C87.6851 23.85 87.8351 23.85 88.3151 23.91ZM96.4973 26.34L96.2573 26.16C96.6173 26.1 96.7973 25.02 97.0373 24.78C97.0073 24.63 97.0073 24.51 97.0073 24.36C97.0073 23.85 97.3373 23.28 97.3373 22.95C97.3973 21.84 98.1773 20.67 98.6573 19.62C98.8073 19.26 99.5873 17.76 99.8273 17.76C99.8873 17.76 99.9773 17.79 100.037 17.79C100.367 17.79 100.667 17.67 100.997 17.67C101.927 17.67 102.017 18.75 102.197 19.41C102.197 19.59 102.137 19.74 102.107 20.01C102.617 19.32 103.457 18.57 103.547 18.18C103.667 17.7 104.987 16.47 106.007 16.47C107.627 16.47 108.077 18.09 108.077 19.17C108.077 20.31 107.837 20.76 106.967 21.39C106.427 21.78 106.577 22.68 106.127 22.68C104.867 22.68 105.227 19.05 104.777 19.05C104.747 19.05 104.747 19.08 104.717 19.08C103.517 19.8 101.987 22.14 101.417 23.55C101.207 24.03 101.057 24.54 100.757 24.99C100.247 25.74 100.457 26.4 99.5873 28.47C99.1673 29.49 99.1973 30.6 98.6573 31.56C98.6873 31.5 98.1473 34.11 97.0073 34.11C96.2573 34.11 95.9873 33.09 95.9873 32.1C95.9873 31.83 96.0473 31.59 96.0473 31.29C96.0473 30.87 95.9273 30.45 95.9273 29.94C95.9273 29.37 96.0473 28.35 96.4373 27.87C96.4373 27.84 96.4673 27.81 96.4673 27.75C96.4673 27.57 96.3173 27.39 96.3173 27.24C96.3173 26.97 96.4373 26.58 96.4973 26.34ZM100.337 23.82L100.307 23.73L100.247 23.82H100.337ZM117.424 34.08C116.824 35.31 116.644 34.65 116.164 35.13C115.684 35.64 114.964 35.64 114.364 35.64C113.884 35.64 112.264 35.52 112.264 34.35C112.264 33.09 113.464 31.29 114.364 30.24C116.254 28.05 117.604 27.09 119.914 26.07C120.274 25.38 120.574 24.27 120.574 23.79C120.574 23.55 120.514 23.28 120.514 23.01C120.514 22.65 120.694 22.26 120.694 21.9C120.694 21.24 120.394 20.82 120.214 20.4C119.914 20.73 119.404 21.36 119.224 21.36C119.134 21.36 119.014 21.21 118.924 21.21C118.804 21.21 118.024 21.81 117.874 22.26C117.754 22.5 117.334 22.5 117.094 22.8C116.824 23.16 115.744 24.51 115.144 24.51C114.904 24.51 114.154 25.17 113.434 25.17C113.344 25.17 113.254 25.14 113.164 25.11C113.074 25.2 113.014 25.23 112.924 25.23C112.774 25.23 112.654 24.93 112.474 24.93C112.234 24.93 111.994 25.05 111.724 25.05C111.454 25.05 110.764 24.84 110.494 24.45C110.494 24.48 108.664 23.7 108.664 22.29C108.664 22.08 108.844 21.9 108.844 21.66C108.844 21.57 108.814 21.51 108.814 21.42C108.814 21.03 108.994 20.67 109.114 20.31C109.444 19.23 109.294 18.21 110.284 17.22C110.284 16.98 110.164 16.83 110.164 16.65C110.164 16.2 110.704 15.84 111.094 15.51C111.184 15.21 111.004 14.85 111.394 14.7C111.544 14.67 111.634 14.52 111.634 14.34C111.724 13.86 112.054 14.04 112.264 13.56C112.414 13.23 113.854 12.6 114.004 12.12C114.094 11.76 114.724 11.7 115.054 11.55C115.414 11.4 115.324 10.92 115.864 10.92C116.554 10.92 116.554 10.56 116.854 10.56C117.004 10.56 117.184 10.77 117.364 10.77C118.144 10.8 118.774 11.25 119.434 11.58C120.214 12 121.744 12.33 121.744 13.44C121.744 13.77 121.234 13.92 120.964 13.92C120.364 13.92 119.404 12.93 118.474 12.93C117.394 12.93 116.074 13.98 115.144 14.97C114.364 15.78 113.014 17.49 112.894 18.69C112.744 19.17 112.414 19.17 112.414 19.92C112.414 20.52 111.904 21.36 111.904 21.96C111.904 22.23 112.144 22.71 112.414 22.71C114.544 22.23 117.154 20.07 119.584 18.57C120.064 18.27 120.874 17.16 121.354 17.16C121.414 17.16 121.504 17.19 121.594 17.19C121.864 17.19 122.194 17.01 122.464 17.01C123.544 17.01 124.264 17.76 124.264 19.59C124.234 19.59 123.424 23.94 123.154 24.24C122.944 24.51 122.974 24.96 122.884 25.32C123.034 25.41 123.184 25.44 123.334 25.44C123.664 25.44 123.964 25.41 124.414 25.41C124.894 25.41 125.374 25.47 125.374 25.89C125.374 26.07 124.924 26.43 124.714 26.64C123.814 26.73 122.974 26.61 122.194 27C121.594 28.26 120.214 30.75 120.274 30.72C119.434 31.35 119.524 32.64 118.354 33.24C117.904 33.48 118.234 34.11 117.664 34.11C117.604 34.11 117.514 34.08 117.424 34.08ZM116.794 33.66C116.794 33.63 116.764 33.63 116.764 33.6C116.764 33.57 116.794 33.57 116.794 33.57C116.824 33.57 116.824 33.57 116.854 33.6C116.824 33.63 116.794 33.63 116.764 33.63C117.064 33.18 117.334 33 117.754 32.7C118.024 31.74 118.504 30.96 119.224 30.36C119.224 30.15 119.194 29.97 119.194 29.79C119.194 29.4 119.284 29.04 119.584 28.77C119.614 28.83 119.614 28.86 119.644 28.86C119.644 28.83 119.614 28.8 119.554 28.8C119.644 28.56 119.704 28.32 119.764 28.05C119.764 27.9 119.644 27.75 119.464 27.75C119.134 27.75 118.564 28.2 118.204 28.53C117.184 29.43 114.394 31.65 114.244 34.08C114.334 34.2 114.604 34.2 114.754 34.2C115.444 34.2 116.044 33.66 116.794 33.66ZM120.184 27.93C120.184 27.9 120.154 27.87 120.154 27.84C120.124 27.87 120.094 27.9 120.094 27.93C120.094 27.93 120.124 27.96 120.124 27.99C120.154 27.99 120.154 27.96 120.184 27.93ZM130.405 25.2C130.615 25.41 130.645 25.68 130.645 26.13C130.645 26.88 130.225 26.94 130.225 27.45C130.225 27.57 130.255 27.81 130.345 27.81C130.375 27.81 130.435 27.72 130.525 27.72C130.615 27.72 130.645 28.44 130.645 28.92C130.645 29.94 130.165 30.12 130.165 30.99C130.165 31.35 130.135 31.59 130.135 31.98C130.135 32.55 130.255 33.12 130.975 33.12C131.005 33.12 131.035 33.12 131.065 33.09C131.095 33.54 131.065 34.17 131.245 34.2C131.695 34.2 132.685 29.94 133.435 28.5C133.525 28.53 133.585 28.53 133.645 28.53C133.945 28.53 133.735 27.84 133.945 27.84C134.095 27.84 134.035 28.98 134.245 28.98C134.455 28.77 134.455 27.96 134.455 27.42C134.455 27.18 134.395 26.91 134.395 26.67C134.395 25.89 134.635 24.78 135.355 24.39C135.595 24.27 135.655 23.43 135.745 23.04C135.835 22.53 136.225 22.14 136.375 21.63C136.435 21.36 137.455 20.52 137.935 20.52C138.115 20.52 138.415 20.61 138.415 20.76C138.415 21.45 137.695 22.17 137.215 22.65C136.525 23.16 136.045 25.14 135.745 25.14C135.625 25.14 135.595 24.93 135.445 24.93C135.175 24.93 135.235 27.66 135.145 28.77C135.025 28.86 134.905 28.92 134.755 29.01C134.665 30.12 134.815 31.26 134.575 32.37C134.455 32.37 134.305 32.34 134.155 32.34C134.125 32.4 134.095 32.46 134.095 32.52C134.095 32.67 134.185 32.82 134.185 33C134.185 33.15 134.155 33.3 134.155 33.45C134.155 33.54 134.185 33.66 134.185 33.78C134.155 34.83 133.675 35.61 133.405 36.54C133.165 37.32 132.445 37.32 132.295 37.74C132.205 38.01 131.635 38.49 131.605 38.49C131.455 38.49 131.335 38.28 131.155 38.28C130.945 38.28 130.705 38.43 130.495 38.43C129.175 38.28 129.175 35.82 128.515 35.19C128.425 35.1 128.395 34.89 128.395 34.62C128.395 33.21 127.915 33.6 127.915 31.83C127.915 31.32 127.945 30.75 127.945 30.36C127.945 29.85 127.765 29.43 127.765 28.95C127.765 28.26 127.945 27.57 127.945 26.88C127.945 26.58 127.945 26.31 127.915 26.01C127.915 25.44 128.425 25.83 128.425 25.47C128.425 25.29 128.395 25.11 128.395 24.93C128.425 24.33 128.455 23.73 128.455 23.13C128.455 22.41 128.125 21.81 128.125 21.15C128.125 20.07 128.365 19.17 128.545 18.15C128.575 18.09 128.605 18 128.605 17.88C128.605 17.61 128.515 17.34 128.515 17.04C128.515 16.77 128.695 16.53 128.695 16.26C128.695 16.05 128.635 15.84 128.635 15.6C128.635 14.94 128.845 14.07 128.845 13.47C128.845 13.23 128.815 12.99 128.815 12.78C128.815 12.3 128.845 11.85 128.845 11.4C128.845 10.98 128.665 10.68 128.665 10.35C128.665 9.69 129.505 9.66 130.045 9.66C131.035 9.66 131.125 9.87 131.125 10.68C131.125 12.24 130.765 14.37 130.765 15.66C130.765 15.81 130.885 15.96 130.885 16.14C130.885 16.17 130.855 16.2 130.855 16.2C130.645 16.59 130.735 17.01 130.675 17.43C130.675 17.61 130.795 17.73 130.795 17.91C130.795 18.03 130.705 18.15 130.705 18.24C130.705 18.39 130.795 18.51 130.795 18.66C130.795 18.9 130.675 19.26 130.675 19.5C130.675 19.74 130.795 19.98 130.795 20.22C130.795 20.76 130.555 21.3 130.555 21.75C130.555 21.93 130.675 22.11 130.675 22.29C130.675 22.53 130.405 22.77 130.405 23.01C130.405 23.25 130.675 23.4 130.675 23.7C130.585 24.45 130.495 24.69 130.405 25.26C130.405 25.26 130.405 25.23 130.405 25.2ZM128.275 28.59C128.455 28.5 128.785 28.47 128.785 28.2C128.785 28.02 128.545 27.87 128.395 27.87C128.245 27.87 128.185 28.02 128.185 28.26C128.185 28.35 128.215 28.47 128.275 28.59ZM133.075 30.42L132.985 30.39C132.955 30.69 132.955 30.99 132.955 31.29C132.955 31.29 132.985 31.32 133.015 31.35C133.075 31.35 133.075 31.14 133.075 30.87C133.075 30.72 133.075 30.54 133.075 30.42ZM134.845 27.57C134.815 27.84 134.785 27.93 134.785 28.02C134.785 28.08 134.815 28.14 134.845 28.17C134.845 28.14 134.875 28.11 134.875 28.08C134.875 27.96 134.845 27.87 134.845 27.57ZM130.795 34.32C130.675 34.32 130.675 34.47 130.675 34.56C130.675 34.65 130.705 34.71 130.765 34.77C130.795 34.65 130.855 34.59 130.885 34.47C130.885 34.44 130.825 34.35 130.795 34.32ZM134.275 30.03C134.335 29.97 134.395 29.94 134.395 29.88C134.395 29.82 134.365 29.79 134.305 29.79C134.215 29.79 134.185 29.85 134.155 29.94C134.155 30 134.215 30.03 134.275 30.03ZM129.925 29.97C129.925 29.88 129.925 29.88 129.865 29.82C129.835 29.88 129.805 29.94 129.805 30C129.805 30.03 129.805 30.06 129.835 30.09C129.865 30.06 129.895 30 129.925 29.97ZM136.015 23.61C136.015 23.58 135.985 23.49 135.955 23.49C135.925 23.49 135.895 23.52 135.895 23.55C135.895 23.58 135.925 23.61 135.925 23.64C135.955 23.64 135.985 23.64 136.015 23.61ZM129.835 26.94L129.865 27.03L129.895 26.97L129.835 26.94ZM149.458 21.18C149.458 21.15 149.488 21.12 149.518 21.12C149.668 21.12 150.058 21.39 150.058 21.66C150.058 21.9 149.758 22.17 148.798 22.26C147.778 22.35 146.818 22.83 145.948 23.25C144.808 23.82 144.598 24 144.478 24.87C144.478 25.05 143.998 27.45 143.878 27.57C143.218 27.93 143.728 28.86 143.278 29.43C142.858 29.97 142.738 30.69 140.608 32.82C140.608 32.82 140.608 32.79 140.578 32.79C140.368 32.79 139.288 33.42 138.898 33.66C138.268 33.48 137.548 33.36 136.948 32.94C136.948 32.94 134.818 31.35 134.818 28.26C134.818 27.66 135.058 27.12 135.058 26.55C135.058 26.16 135.688 24.66 135.688 23.97C135.688 23.34 134.848 22.11 134.848 21.24C134.848 18.12 136.048 17.85 138.028 17.85C138.478 17.85 138.958 17.85 139.468 17.85C140.278 17.85 140.938 18.48 141.658 18.72C142.498 19.02 143.608 20.25 143.938 21.36C144.058 21.84 144.148 22.47 144.658 22.47C144.748 22.47 144.838 22.44 144.928 22.41C146.428 21.9 147.868 21.27 149.458 21.18ZM142.828 25.62C142.768 25.23 142.888 24.84 142.438 24.84C141.358 25.23 140.278 25.68 139.108 25.68C138.508 25.83 138.298 26.73 138.298 27.66C138.298 27.81 138.328 27.96 138.328 28.11C138.328 28.5 138.118 28.98 138.118 29.34C138.118 29.94 138.508 31.17 139.288 31.17C140.758 31.17 141.928 27.57 142.468 27.21C142.798 27 142.738 26.16 142.828 25.62ZM138.478 18.87C138.358 18.9 138.178 18.93 137.998 18.96C137.068 19.08 136.528 20.31 136.528 21.18C136.528 21.45 136.528 22.08 136.918 22.08C136.948 22.08 136.978 22.08 136.978 22.05C137.398 21.63 137.488 21.45 137.698 21.45C137.788 21.45 137.938 21.48 138.148 21.57C138.328 21.63 140.158 22.08 140.158 22.77C140.158 23.04 139.738 23.58 139.738 23.85C139.738 24.09 139.978 24.12 140.128 24.12C140.908 24.03 142.648 23.7 142.648 23.01C142.648 22.83 142.648 22.65 142.558 22.47C141.808 20.85 140.548 18.87 138.478 18.87ZM163.026 28.92C162.786 29.31 162.786 29.76 162.726 30.21C162.096 30.84 161.796 30.84 161.796 31.71C161.796 31.86 161.826 32.01 161.826 32.16C161.826 33.78 161.046 34.02 160.536 35.37C160.356 35.7 160.026 35.91 159.726 36.09C159.576 36 159.366 35.85 159.276 35.85C159.126 35.85 158.946 36.27 158.766 36.27C158.436 36.27 157.176 35.58 157.116 35.01C157.116 34.77 156.546 34.74 156.546 34.32C156.546 34.23 156.576 34.14 156.576 34.05C156.576 33.84 156.306 33.72 156.306 33.57C156.306 33.45 156.426 33.3 156.426 33.15C156.426 32.91 156.006 32.91 156.006 32.58C156.006 31.8 156.096 31.08 156.096 30.33C156.066 30.18 156.066 30 156.066 29.85C156.066 29.4 156.156 28.98 156.396 28.59C156.426 28.56 156.426 28.5 156.426 28.44C156.426 28.26 156.366 28.11 156.366 27.96C156.366 27.48 156.786 26.94 156.786 26.37C156.786 25.65 157.146 25.26 157.146 24.84C157.146 24.6 156.936 24.39 156.936 24.15C156.936 23.64 157.146 23.01 157.236 22.44C157.236 22.14 157.116 21.96 156.786 21.9C156.606 21.96 156.216 22.08 156.216 22.32C156.216 22.89 155.556 23.25 155.166 23.52C154.866 23.64 154.776 24.27 154.356 24.54C153.906 24.81 152.826 27.93 151.026 27.93C150.576 27.93 150.066 27.6 149.586 27.33C148.926 26.97 148.956 25.2 148.656 24.18C148.596 24.06 148.566 23.91 148.566 23.79C148.566 23.04 149.076 21.84 149.076 21.45C149.076 20.73 149.526 20.19 149.526 19.5C149.526 19.62 150.156 15.78 151.056 15.78C151.686 15.78 152.436 16.65 152.436 16.98C152.436 17.73 151.716 18.51 151.686 19.35C151.626 20.64 151.116 22.26 151.116 23.85C151.116 24.12 151.236 24.39 151.326 24.66C151.926 24.66 153.756 22.41 154.746 21.6C155.646 20.88 157.296 19.47 157.716 19.47C159.036 19.56 160.176 19.74 160.176 21.3C160.176 22.53 160.086 25.05 159.396 26.7C159.156 27.27 159.156 27.96 159.036 28.56C159.066 28.71 159.066 28.89 159.066 29.04C159.066 30.15 158.586 31.32 158.586 31.95C158.586 32.22 158.766 33.15 159.066 33.15C159.516 33.15 160.416 31.35 160.416 30.9C160.416 30.45 161.106 30.15 161.106 29.88C161.076 29.73 161.016 29.58 161.016 29.43C161.016 29.31 161.106 29.1 161.256 29.1C161.346 29.1 161.496 29.25 161.526 29.25C161.496 29.25 161.766 28.89 161.886 28.77C162.336 28.32 162.186 26.22 163.296 26.22L163.266 26.19C163.116 26.76 163.146 27.24 163.026 27.72C162.906 27.72 162.846 27.72 162.846 27.75C162.846 27.78 162.876 27.81 162.906 27.87C162.906 27.87 162.996 27.78 162.996 27.69C162.996 27.99 162.606 28.32 162.606 28.62C162.606 28.8 162.876 28.89 163.026 28.92ZM161.526 31.53C161.556 31.41 161.586 31.32 161.586 31.23C161.586 31.02 161.526 30.84 161.526 30.63C161.496 30.81 161.466 30.99 161.466 31.17C161.466 31.29 161.496 31.41 161.526 31.53ZM162.186 29.37L162.216 29.28H162.156L162.186 29.37ZM165.396 22.77L165.306 22.83C165.396 22.92 165.426 23.01 165.426 23.1C165.426 23.55 164.556 24.75 164.556 24.9C164.556 25.02 164.586 25.14 164.586 25.23C164.586 26.01 163.656 25.95 163.266 26.19L163.296 26.22C163.206 25.92 163.116 25.65 163.056 25.38C163.626 24.54 164.196 23.76 164.196 21.6C164.196 21.09 163.746 20.61 163.746 20.19C163.746 19.8 164.406 19.35 164.916 19.35C166.626 19.35 168.336 19.14 170.076 19.14C170.856 19.14 171.816 19.14 171.816 19.98C171.816 20.52 171.336 20.52 171.006 20.52C170.796 20.52 170.616 20.49 170.406 20.49C169.956 20.49 169.536 20.55 169.116 20.64C168.156 20.85 166.836 20.73 166.206 21.12C165.846 21.81 165.816 22.41 165.306 22.83C165.336 22.83 165.366 22.8 165.396 22.77ZM164.256 25.32C164.256 25.2 164.256 25.26 164.196 25.17C164.196 25.2 164.166 25.23 164.166 25.26C164.166 25.29 164.166 25.32 164.196 25.35C164.196 25.35 164.226 25.32 164.256 25.32ZM163.026 28.95L162.996 28.86C162.996 28.89 163.026 28.92 163.026 28.95Z" fill="black"/>
<path d="M62.18 55.1C61.4733 55.1 60.8333 54.9467 60.26 54.64C59.6933 54.3267 59.2467 53.8967 58.92 53.35C58.6 52.8033 58.44 52.1867 58.44 51.5C58.44 50.8133 58.6033 50.1967 58.93 49.65C59.2567 49.1033 59.7033 48.6767 60.27 48.37C60.8433 48.0567 61.4833 47.9 62.19 47.9C62.7633 47.9 63.2867 48 63.76 48.2C64.2333 48.4 64.6333 48.69 64.96 49.07L64.12 49.86C63.6133 49.3133 62.99 49.04 62.25 49.04C61.77 49.04 61.34 49.1467 60.96 49.36C60.58 49.5667 60.2833 49.8567 60.07 50.23C59.8567 50.6033 59.75 51.0267 59.75 51.5C59.75 51.9733 59.8567 52.3967 60.07 52.77C60.2833 53.1433 60.58 53.4367 60.96 53.65C61.34 53.8567 61.77 53.96 62.25 53.96C62.99 53.96 63.6133 53.6833 64.12 53.13L64.96 53.93C64.6333 54.31 64.23 54.6 63.75 54.8C63.2767 55 62.7533 55.1 62.18 55.1ZM71.7291 55.1C71.0158 55.1 70.3725 54.9467 69.7991 54.64C69.2258 54.3267 68.7758 53.8967 68.4491 53.35C68.1225 52.7967 67.9591 52.18 67.9591 51.5C67.9591 50.82 68.1225 50.2067 68.4491 49.66C68.7758 49.1067 69.2258 48.6767 69.7991 48.37C70.3725 48.0567 71.0158 47.9 71.7291 47.9C72.4425 47.9 73.0858 48.0567 73.6591 48.37C74.2325 48.6767 74.6825 49.1033 75.0091 49.65C75.3358 50.1967 75.4991 50.8133 75.4991 51.5C75.4991 52.1867 75.3358 52.8033 75.0091 53.35C74.6825 53.8967 74.2325 54.3267 73.6591 54.64C73.0858 54.9467 72.4425 55.1 71.7291 55.1ZM71.7291 53.96C72.1958 53.96 72.6158 53.8567 72.9891 53.65C73.3625 53.4367 73.6558 53.1433 73.8691 52.77C74.0825 52.39 74.1891 51.9667 74.1891 51.5C74.1891 51.0333 74.0825 50.6133 73.8691 50.24C73.6558 49.86 73.3625 49.5667 72.9891 49.36C72.6158 49.1467 72.1958 49.04 71.7291 49.04C71.2625 49.04 70.8425 49.1467 70.4691 49.36C70.0958 49.5667 69.8025 49.86 69.5891 50.24C69.3758 50.6133 69.2691 51.0333 69.2691 51.5C69.2691 51.9667 69.3758 52.39 69.5891 52.77C69.8025 53.1433 70.0958 53.4367 70.4691 53.65C70.8425 53.8567 71.2625 53.96 71.7291 53.96ZM81.4471 55.1C80.9071 55.1 80.3838 55.0233 79.8771 54.87C79.3771 54.7167 78.9804 54.5133 78.6871 54.26L79.1371 53.25C79.4238 53.4767 79.7738 53.6633 80.1871 53.81C80.6071 53.95 81.0271 54.02 81.4471 54.02C81.9671 54.02 82.3538 53.9367 82.6071 53.77C82.8671 53.6033 82.9971 53.3833 82.9971 53.11C82.9971 52.91 82.9238 52.7467 82.7771 52.62C82.6371 52.4867 82.4571 52.3833 82.2371 52.31C82.0171 52.2367 81.7171 52.1533 81.3371 52.06C80.8038 51.9333 80.3704 51.8067 80.0371 51.68C79.7104 51.5533 79.4271 51.3567 79.1871 51.09C78.9538 50.8167 78.8371 50.45 78.8371 49.99C78.8371 49.6033 78.9404 49.2533 79.1471 48.94C79.3604 48.62 79.6771 48.3667 80.0971 48.18C80.5238 47.9933 81.0438 47.9 81.6571 47.9C82.0838 47.9 82.5038 47.9533 82.9171 48.06C83.3304 48.1667 83.6871 48.32 83.9871 48.52L83.5771 49.53C83.2704 49.35 82.9504 49.2133 82.6171 49.12C82.2838 49.0267 81.9604 48.98 81.6471 48.98C81.1338 48.98 80.7504 49.0667 80.4971 49.24C80.2504 49.4133 80.1271 49.6433 80.1271 49.93C80.1271 50.13 80.1971 50.2933 80.3371 50.42C80.4838 50.5467 80.6671 50.6467 80.8871 50.72C81.1071 50.7933 81.4071 50.8767 81.7871 50.97C82.3071 51.09 82.7338 51.2167 83.0671 51.35C83.4004 51.4767 83.6838 51.6733 83.9171 51.94C84.1571 52.2067 84.2771 52.5667 84.2771 53.02C84.2771 53.4067 84.1704 53.7567 83.9571 54.07C83.7504 54.3833 83.4338 54.6333 83.0071 54.82C82.5804 55.0067 82.0604 55.1 81.4471 55.1ZM94.3962 55L94.3862 50.36L92.0862 54.2H91.5062L89.2062 50.42V55H87.9662V48H89.0362L91.8162 52.64L94.5462 48H95.6162L95.6262 55H94.3962ZM105.167 53.91V55H99.917V48H105.027V49.09H101.217V50.91H104.597V51.98H101.217V53.91H105.167ZM110.436 49.1H108.116V48H114.056V49.1H111.736V55H110.436V49.1ZM117.432 48H118.732V55H117.432V48ZM126.265 55.1C125.558 55.1 124.918 54.9467 124.345 54.64C123.778 54.3267 123.332 53.8967 123.005 53.35C122.685 52.8033 122.525 52.1867 122.525 51.5C122.525 50.8133 122.688 50.1967 123.015 49.65C123.342 49.1033 123.788 48.6767 124.355 48.37C124.928 48.0567 125.568 47.9 126.275 47.9C126.848 47.9 127.372 48 127.845 48.2C128.318 48.4 128.718 48.69 129.045 49.07L128.205 49.86C127.698 49.3133 127.075 49.04 126.335 49.04C125.855 49.04 125.425 49.1467 125.045 49.36C124.665 49.5667 124.368 49.8567 124.155 50.23C123.942 50.6033 123.835 51.0267 123.835 51.5C123.835 51.9733 123.942 52.3967 124.155 52.77C124.368 53.1433 124.665 53.4367 125.045 53.65C125.425 53.8567 125.855 53.96 126.335 53.96C127.075 53.96 127.698 53.6833 128.205 53.13L129.045 53.93C128.718 54.31 128.315 54.6 127.835 54.8C127.362 55 126.838 55.1 126.265 55.1ZM134.822 55.1C134.282 55.1 133.758 55.0233 133.252 54.87C132.752 54.7167 132.355 54.5133 132.062 54.26L132.512 53.25C132.798 53.4767 133.148 53.6633 133.562 53.81C133.982 53.95 134.402 54.02 134.822 54.02C135.342 54.02 135.728 53.9367 135.982 53.77C136.242 53.6033 136.372 53.3833 136.372 53.11C136.372 52.91 136.298 52.7467 136.152 52.62C136.012 52.4867 135.832 52.3833 135.612 52.31C135.392 52.2367 135.092 52.1533 134.712 52.06C134.178 51.9333 133.745 51.8067 133.412 51.68C133.085 51.5533 132.802 51.3567 132.562 51.09C132.328 50.8167 132.212 50.45 132.212 49.99C132.212 49.6033 132.315 49.2533 132.522 48.94C132.735 48.62 133.052 48.3667 133.472 48.18C133.898 47.9933 134.418 47.9 135.032 47.9C135.458 47.9 135.878 47.9533 136.292 48.06C136.705 48.1667 137.062 48.32 137.362 48.52L136.952 49.53C136.645 49.35 136.325 49.2133 135.992 49.12C135.658 49.0267 135.335 48.98 135.022 48.98C134.508 48.98 134.125 49.0667 133.872 49.24C133.625 49.4133 133.502 49.6433 133.502 49.93C133.502 50.13 133.572 50.2933 133.712 50.42C133.858 50.5467 134.042 50.6467 134.262 50.72C134.482 50.7933 134.782 50.8767 135.162 50.97C135.682 51.09 136.108 51.2167 136.442 51.35C136.775 51.4767 137.058 51.6733 137.292 51.94C137.532 52.2067 137.652 52.5667 137.652 53.02C137.652 53.4067 137.545 53.7567 137.332 54.07C137.125 54.3833 136.808 54.6333 136.382 54.82C135.955 55.0067 135.435 55.1 134.822 55.1Z" fill="black"/>
</svg>
