<svg width="80" height="80" viewBox="0 0 80 80" fill="none" xmlns="http://www.w3.org/2000/svg">
<rect x="0.5" y="0.5" width="79" height="79" rx="6.5" fill="#F9FBFD" stroke="#DCE1E9"/>
<path d="M52.4208 40.0705H40.6523V26.6926C40.6378 26.2925 40.4913 25.9144 40.2434 25.6373C39.9955 25.3602 39.6654 25.2054 39.3219 25.2054C38.9785 25.2054 38.6484 25.3602 38.4005 25.6373C38.1526 25.9144 38.0061 26.2925 37.9916 26.6926V40.0705H26.4809C26.1377 40.0874 25.8135 40.2582 25.5758 40.5473C25.3381 40.8363 25.2054 41.2213 25.2054 41.6217C25.2054 42.0222 25.3381 42.4072 25.5758 42.6962C25.8135 42.9853 26.1377 43.1561 26.4809 43.173H37.9916V56.595C38.0061 56.9951 38.1526 57.3732 38.4005 57.6503C38.6484 57.9274 38.9785 58.0822 39.3219 58.0822C39.6654 58.0822 39.9955 57.9274 40.2434 57.6503C40.4913 57.3732 40.6378 56.9951 40.6523 56.595V43.173H52.4232C52.7663 43.1561 53.0906 42.9853 53.3282 42.6962C53.5659 42.4072 53.6986 42.0222 53.6986 41.6217C53.6986 41.2213 53.5659 40.8363 53.3282 40.5473C53.0906 40.2582 52.7663 40.0874 52.4232 40.0705H52.4208Z" fill="#AAB5C0"/>
</svg>
